<svg xmlns:inkscape="http://www.inkscape.org/namespaces/inkscape" xmlns:sodipodi="http://sodipodi.sourceforge.net/DTD/sodipodi-0.dtd" xmlns="http://www.w3.org/2000/svg" xmlns:svg="http://www.w3.org/2000/svg" xmlns:rdf="http://www.w3.org/1999/02/22-rdf-syntax-ns#" xmlns:cc="http://creativecommons.org/ns#" xmlns:dc="http://purl.org/dc/elements/1.1/" aria-hidden="true" data-prefix="fas" data-icon="mail-bulk" class="svg-inline--fa fa-mail-bulk fa-w-18" viewBox="0 0 999.99994 1000.2352" id="svg4" sodipodi:docname="Chatberatung.svg" inkscape:version="1.1 (c68e22c387, 2021-05-23)" width="999.99994" height="1000.2352"><metadata></metadata><defs id="defs8"><rect x="-1791.6704" y="2956.9297" width="1407.7411" height="215.53931" id="rect1027"></rect><rect x="-1555.9243" y="3010.8147" width="821.74359" height="242.4817" id="rect1021"></rect><rect x="-1791.6704" y="2956.9297" width="1407.7411" height="215.53931" id="rect1027-0"></rect><rect x="-1791.6704" y="2956.9297" width="1407.7411" height="215.53931" id="rect1042"></rect><rect x="-1791.6704" y="2956.9297" width="1407.7411" height="215.53931" id="rect1027-0-1"></rect><rect x="-1791.6704" y="2956.9297" width="1407.7411" height="215.53931" id="rect1070"></rect><rect x="-1791.6704" y="2956.9297" width="1407.7411" height="215.53931" id="rect1027-4"></rect><rect x="-1791.6704" y="2956.9297" width="1407.7411" height="215.53931" id="rect1100"></rect><rect x="-1791.6704" y="2956.9297" width="1407.7411" height="215.53931" id="rect1027-0-3"></rect><rect x="-1791.6704" y="2956.9297" width="1407.7411" height="215.53931" id="rect1103"></rect><rect x="-1791.6704" y="2956.9297" width="1407.7411" height="215.53931" id="rect1027-0-1-7"></rect><rect x="-1791.6704" y="2956.9297" width="1407.7411" height="215.53931" id="rect1106"></rect><rect x="-1791.6704" y="2956.9297" width="1407.7411" height="215.53931" id="rect1027-08"></rect><rect x="-1791.6704" y="2956.9297" width="1407.7411" height="215.53931" id="rect1197"></rect><rect x="-1791.6704" y="2956.9297" width="1407.7411" height="215.53931" id="rect1027-0-9"></rect><rect x="-1791.6704" y="2956.9297" width="1407.7411" height="215.53931" id="rect1200"></rect><rect x="-1791.6704" y="2956.9297" width="1407.7411" height="215.53931" id="rect1027-0-1-5"></rect><rect x="-1791.6704" y="2956.9297" width="1407.7411" height="215.53931" id="rect1203"></rect><rect x="-1791.6704" y="2956.9297" width="1407.7411" height="215.53931" id="rect1027-08-0"></rect><rect x="-1791.6704" y="2956.9297" width="1407.7411" height="215.53931" id="rect1291"></rect><rect x="-1791.6704" y="2956.9297" width="1407.7411" height="215.53931" id="rect1027-0-9-8"></rect><rect x="-1791.6704" y="2956.9297" width="1407.7411" height="215.53931" id="rect1294"></rect><rect x="-1791.6704" y="2956.9297" width="1407.7411" height="215.53931" id="rect1027-0-1-5-1"></rect><rect x="-1791.6704" y="2956.9297" width="1407.7411" height="215.53931" id="rect1297"></rect><rect x="-1791.6704" y="2956.9297" width="1407.7411" height="215.53931" id="rect1027-08-0-0"></rect><rect x="-1791.6704" y="2956.9297" width="1407.7411" height="215.53931" id="rect1387"></rect><rect x="-1791.6704" y="2956.9297" width="1407.7411" height="215.53931" id="rect1027-0-9-8-1"></rect><rect x="-1791.6704" y="2956.9297" width="1407.7411" height="215.53931" id="rect1390"></rect><rect x="-1791.6704" y="2956.9297" width="1407.7411" height="215.53931" id="rect1027-0-1-5-1-9"></rect><rect x="-1791.6704" y="2956.9297" width="1407.7411" height="215.53931" id="rect1393"></rect><rect x="-1791.6704" y="2956.9297" width="1407.7411" height="215.53931" id="rect1027-08-0-0-9"></rect><rect x="-1791.6704" y="2956.9297" width="1407.7411" height="215.53931" id="rect1489"></rect><rect x="-1791.6704" y="2956.9297" width="1407.7411" height="215.53931" id="rect1027-0-9-8-1-0"></rect><rect x="-1791.6704" y="2956.9297" width="1407.7411" height="215.53931" id="rect1492"></rect><rect x="-1791.6704" y="2956.9297" width="1407.7411" height="215.53931" id="rect1027-0-1-5-1-9-7"></rect><rect x="-1791.6704" y="2956.9297" width="1407.7411" height="215.53931" id="rect1495"></rect><rect x="-1791.6704" y="2956.9297" width="1407.7411" height="215.53931" id="rect1027-08-0-0-7"></rect><rect x="-1791.6704" y="2956.9297" width="1407.7411" height="215.53931" id="rect1620"></rect><rect x="-1791.6704" y="2956.9297" width="1407.7411" height="215.53931" id="rect1027-0-9-8-1-6"></rect><rect x="-1791.6704" y="2956.9297" width="1407.7411" height="215.53931" id="rect1623"></rect><rect x="-1791.6704" y="2956.9297" width="1407.7411" height="215.53931" id="rect1027-0-1-5-1-9-3"></rect><rect x="-1791.6704" y="2956.9297" width="1407.7411" height="215.53931" id="rect1626"></rect><rect x="-1791.6704" y="2956.9297" width="1407.7411" height="215.53931" id="rect1027-08-0-0-7-7"></rect><rect x="-1791.6704" y="2956.9297" width="1407.7411" height="215.53931" id="rect1716"></rect><rect x="-1791.6704" y="2956.9297" width="1407.7411" height="215.53931" id="rect1027-0-9-8-1-6-4"></rect><rect x="-1791.6704" y="2956.9297" width="1407.7411" height="215.53931" id="rect1719"></rect><rect x="-1791.6704" y="2956.9297" width="1407.7411" height="215.53931" id="rect1027-0-1-5-1-9-3-6"></rect><rect x="-1791.6704" y="2956.9297" width="1407.7411" height="215.53931" id="rect1722"></rect><rect x="-1791.6704" y="2956.9297" width="1407.7411" height="215.53931" id="rect1027-08-0-0-7-8"></rect><rect x="-1791.6704" y="2956.9297" width="1407.7411" height="215.53931" id="rect1803"></rect><rect x="-1791.6704" y="2956.9297" width="1407.7411" height="215.53931" id="rect1027-0-9-8-1-6-46"></rect><rect x="-1791.6704" y="2956.9297" width="1407.7411" height="215.53931" id="rect1806"></rect><rect x="-1791.6704" y="2956.9297" width="1407.7411" height="215.53931" id="rect1027-0-1-5-1-9-3-9"></rect><rect x="-1791.6704" y="2956.9297" width="1407.7411" height="215.53931" id="rect1809"></rect><rect x="-1791.6704" y="2956.9297" width="1407.7411" height="215.53931" id="rect1027-08-0-6"></rect><rect x="-1791.6704" y="2956.9297" width="1407.7411" height="215.53931" id="rect1944"></rect><rect x="-1791.6704" y="2956.9297" width="1407.7411" height="215.53931" id="rect1027-0-9-8-3"></rect><rect x="-1791.6704" y="2956.9297" width="1407.7411" height="215.53931" id="rect1947"></rect><rect x="-1791.6704" y="2956.9297" width="1407.7411" height="215.53931" id="rect1027-0-1-5-1-6"></rect><rect x="-1791.6704" y="2956.9297" width="1407.7411" height="215.53931" id="rect1950"></rect><rect x="-1791.6704" y="2956.9297" width="1407.7411" height="215.53931" id="rect1027-08-0-61"></rect><rect x="-1791.6704" y="2956.9297" width="1407.7411" height="215.53931" id="rect2054"></rect><rect x="-1791.6704" y="2956.9297" width="1407.7411" height="215.53931" id="rect1027-0-9-8-8"></rect><rect x="-1791.6704" y="2956.9297" width="1407.7411" height="215.53931" id="rect2057"></rect><rect x="-1791.6704" y="2956.9297" width="1407.7411" height="215.53931" id="rect1027-0-1-5-1-4"></rect><rect x="-1791.6704" y="2956.9297" width="1407.7411" height="215.53931" id="rect2060"></rect><rect x="-1791.6704" y="2956.9297" width="1407.7411" height="215.53931" id="rect1027-08-0-8"></rect><rect x="-1791.6704" y="2956.9297" width="1407.7411" height="215.53931" id="rect2182"></rect><rect x="-1791.6704" y="2956.9297" width="1407.7411" height="215.53931" id="rect1027-0-9-8-2"></rect><rect x="-1791.6704" y="2956.9297" width="1407.7411" height="215.53931" id="rect2185"></rect><rect x="-1791.6704" y="2956.9297" width="1407.7411" height="215.53931" id="rect1027-0-1-5-1-5"></rect><rect x="-1791.6704" y="2956.9297" width="1407.7411" height="215.53931" id="rect2188"></rect><rect x="-1791.6704" y="2956.9297" width="1407.7411" height="215.53931" id="rect1027-08-0-0-7-7-1"></rect><rect x="-1791.6704" y="2956.9297" width="1407.7411" height="215.53931" id="rect2307"></rect><rect x="-1791.6704" y="2956.9297" width="1407.7411" height="215.53931" id="rect1027-0-9-8-1-6-4-8"></rect><rect x="-1791.6704" y="2956.9297" width="1407.7411" height="215.53931" id="rect2310"></rect><rect x="-1791.6704" y="2956.9297" width="1407.7411" height="215.53931" id="rect1027-0-1-5-1-9-3-6-9"></rect><rect x="-1791.6704" y="2956.9297" width="1407.7411" height="215.53931" id="rect2313"></rect><rect x="-1791.6704" y="2956.9297" width="1407.7411" height="215.53931" id="rect1027-08-0-0-7-4"></rect><rect x="-1791.6704" y="2956.9297" width="1407.7411" height="215.53931" id="rect2427"></rect><rect x="-1791.6704" y="2956.9297" width="1407.7411" height="215.53931" id="rect1027-0-9-8-1-6-0"></rect><rect x="-1791.6704" y="2956.9297" width="1407.7411" height="215.53931" id="rect2430"></rect><rect x="-1791.6704" y="2956.9297" width="1407.7411" height="215.53931" id="rect1027-0-1-5-1-9-3-8"></rect><rect x="-1791.6704" y="2956.9297" width="1407.7411" height="215.53931" id="rect2433"></rect><rect x="-1791.6704" y="2956.9297" width="1407.7411" height="215.53931" id="rect1027-08-0-0-7-7-1-6"></rect><rect x="-1791.6704" y="2956.9297" width="1407.7411" height="215.53931" id="rect2517"></rect><rect x="-1791.6704" y="2956.9297" width="1407.7411" height="215.53931" id="rect1027-0-9-8-1-6-4-8-2"></rect><rect x="-1791.6704" y="2956.9297" width="1407.7411" height="215.53931" id="rect2520"></rect><rect x="-1791.6704" y="2956.9297" width="1407.7411" height="215.53931" id="rect1027-0-1-5-1-9-3-6-9-8"></rect><rect x="-1791.6704" y="2956.9297" width="1407.7411" height="215.53931" id="rect2523"></rect><rect x="-1791.6704" y="2956.9297" width="1407.7411" height="215.53931" id="rect1027-08-0-0-7-7-14"></rect><rect x="-1791.6704" y="2956.9297" width="1407.7411" height="215.53931" id="rect1027-0-9-8-1-6-4-80"></rect><rect x="-1791.6704" y="2956.9297" width="1407.7411" height="215.53931" id="rect1027-0-1-5-1-9-3-6-6"></rect></defs><text xml:space="preserve" id="text1019" style="font-weight:bold;font-size:14.6667px;line-height:0.7;font-family:'MS 33558';-inkscape-font-specification:'MS 33558 Bold';text-align:center;letter-spacing:0px;word-spacing:0px;white-space:pre;shape-inside:url(#rect1021)" transform="translate(13049.594,-736.36872)"></text><ellipse style="fill:#ffffff;fill-opacity:1;stroke:#c80032;stroke-width:31.3999;stroke-linejoin:round;stroke-miterlimit:4;stroke-dasharray:none;stroke-opacity:1;paint-order:fill markers stroke" id="path987-2-5" cx="-499.99997" cy="-500.11761" rx="484.30002" ry="484.41766" transform="scale(-1)"></ellipse><path fill="currentColor" d="m 615.7377,454.06433 c 0,-88.4 -93.1,-160 -208,-160 -114.9,0 -208.001,71.6 -208.001,160 0,34.3 14.1,65.9 38,92 -13.4,30.2 -35.5,54.2 -35.8,54.5 -2.2,2.3 -2.8,5.7 -1.5,8.7 1.3,3 4.1,4.8 7.3,4.8 36.6,0 66.901,-12.3 88.701,-25 32.2,15.7 70.3,25 111.3,25 114.9,0 208,-71.6 208,-160 z" id="path835-1-6-3" sodipodi:nodetypes="sssccsscss" style="fill:#c80032;fill-opacity:1"></path><path fill="currentColor" d="m 765.4097,682.18733 c 23.9,-26 38,-57.7 38,-92 0,-66.9 -53.5,-124.2 -129.3,-148.1 0.9,6.6 1.3,13.3 1.3,20.1 0,105.9 -107.7,192 -240,192 -10.8,0 -21.3,-0.8 -31.7,-1.9 31.5,57.5 105.5,97.9 191.7,97.9 41,0 79.1,-9.2 111.3,-25 21.8,12.7 52.1,25 88.7,25 3.2,0 6.1,-1.9 7.3,-4.8 1.3,-2.9 0.7,-6.3 -1.5,-8.7 -0.3,-0.3 -22.4,-24.2 -35.8,-54.5 z" id="path835-8-9" sodipodi:nodetypes="cscsscscsccc" style="fill:#c80032;fill-opacity:0.7"></path></svg>