<svg xmlns:inkscape="http://www.inkscape.org/namespaces/inkscape" xmlns:sodipodi="http://sodipodi.sourceforge.net/DTD/sodipodi-0.dtd" xmlns="http://www.w3.org/2000/svg" xmlns:svg="http://www.w3.org/2000/svg" xmlns:rdf="http://www.w3.org/1999/02/22-rdf-syntax-ns#" xmlns:cc="http://creativecommons.org/ns#" xmlns:dc="http://purl.org/dc/elements/1.1/" aria-hidden="true" data-prefix="fas" data-icon="mail-bulk" class="svg-inline--fa fa-mail-bulk fa-w-18" viewBox="0 0 999.99994 1000.2352" id="svg4" sodipodi:docname="Themenchat.svg" inkscape:version="1.1 (c68e22c387, 2021-05-23)" width="999.99994" height="1000.2352"><metadata></metadata><defs id="defs8"><rect x="-1791.6704" y="2956.9297" width="1407.7411" height="215.53931" id="rect1027"></rect><rect x="-1555.9243" y="3010.8147" width="821.74359" height="242.4817" id="rect1021"></rect><rect x="-1791.6704" y="2956.9297" width="1407.7411" height="215.53931" id="rect1027-0"></rect><rect x="-1791.6704" y="2956.9297" width="1407.7411" height="215.53931" id="rect1042"></rect><rect x="-1791.6704" y="2956.9297" width="1407.7411" height="215.53931" id="rect1027-0-1"></rect><rect x="-1791.6704" y="2956.9297" width="1407.7411" height="215.53931" id="rect1070"></rect><rect x="-1791.6704" y="2956.9297" width="1407.7411" height="215.53931" id="rect1027-4"></rect><rect x="-1791.6704" y="2956.9297" width="1407.7411" height="215.53931" id="rect1100"></rect><rect x="-1791.6704" y="2956.9297" width="1407.7411" height="215.53931" id="rect1027-0-3"></rect><rect x="-1791.6704" y="2956.9297" width="1407.7411" height="215.53931" id="rect1103"></rect><rect x="-1791.6704" y="2956.9297" width="1407.7411" height="215.53931" id="rect1027-0-1-7"></rect><rect x="-1791.6704" y="2956.9297" width="1407.7411" height="215.53931" id="rect1106"></rect><rect x="-1791.6704" y="2956.9297" width="1407.7411" height="215.53931" id="rect1027-08"></rect><rect x="-1791.6704" y="2956.9297" width="1407.7411" height="215.53931" id="rect1197"></rect><rect x="-1791.6704" y="2956.9297" width="1407.7411" height="215.53931" id="rect1027-0-9"></rect><rect x="-1791.6704" y="2956.9297" width="1407.7411" height="215.53931" id="rect1200"></rect><rect x="-1791.6704" y="2956.9297" width="1407.7411" height="215.53931" id="rect1027-0-1-5"></rect><rect x="-1791.6704" y="2956.9297" width="1407.7411" height="215.53931" id="rect1203"></rect><rect x="-1791.6704" y="2956.9297" width="1407.7411" height="215.53931" id="rect1027-08-0"></rect><rect x="-1791.6704" y="2956.9297" width="1407.7411" height="215.53931" id="rect1291"></rect><rect x="-1791.6704" y="2956.9297" width="1407.7411" height="215.53931" id="rect1027-0-9-8"></rect><rect x="-1791.6704" y="2956.9297" width="1407.7411" height="215.53931" id="rect1294"></rect><rect x="-1791.6704" y="2956.9297" width="1407.7411" height="215.53931" id="rect1027-0-1-5-1"></rect><rect x="-1791.6704" y="2956.9297" width="1407.7411" height="215.53931" id="rect1297"></rect><rect x="-1791.6704" y="2956.9297" width="1407.7411" height="215.53931" id="rect1027-08-0-0"></rect><rect x="-1791.6704" y="2956.9297" width="1407.7411" height="215.53931" id="rect1387"></rect><rect x="-1791.6704" y="2956.9297" width="1407.7411" height="215.53931" id="rect1027-0-9-8-1"></rect><rect x="-1791.6704" y="2956.9297" width="1407.7411" height="215.53931" id="rect1390"></rect><rect x="-1791.6704" y="2956.9297" width="1407.7411" height="215.53931" id="rect1027-0-1-5-1-9"></rect><rect x="-1791.6704" y="2956.9297" width="1407.7411" height="215.53931" id="rect1393"></rect><rect x="-1791.6704" y="2956.9297" width="1407.7411" height="215.53931" id="rect1027-08-0-0-9"></rect><rect x="-1791.6704" y="2956.9297" width="1407.7411" height="215.53931" id="rect1489"></rect><rect x="-1791.6704" y="2956.9297" width="1407.7411" height="215.53931" id="rect1027-0-9-8-1-0"></rect><rect x="-1791.6704" y="2956.9297" width="1407.7411" height="215.53931" id="rect1492"></rect><rect x="-1791.6704" y="2956.9297" width="1407.7411" height="215.53931" id="rect1027-0-1-5-1-9-7"></rect><rect x="-1791.6704" y="2956.9297" width="1407.7411" height="215.53931" id="rect1495"></rect><rect x="-1791.6704" y="2956.9297" width="1407.7411" height="215.53931" id="rect1027-08-0-0-7"></rect><rect x="-1791.6704" y="2956.9297" width="1407.7411" height="215.53931" id="rect1620"></rect><rect x="-1791.6704" y="2956.9297" width="1407.7411" height="215.53931" id="rect1027-0-9-8-1-6"></rect><rect x="-1791.6704" y="2956.9297" width="1407.7411" height="215.53931" id="rect1623"></rect><rect x="-1791.6704" y="2956.9297" width="1407.7411" height="215.53931" id="rect1027-0-1-5-1-9-3"></rect><rect x="-1791.6704" y="2956.9297" width="1407.7411" height="215.53931" id="rect1626"></rect><rect x="-1791.6704" y="2956.9297" width="1407.7411" height="215.53931" id="rect1027-08-0-0-7-7"></rect><rect x="-1791.6704" y="2956.9297" width="1407.7411" height="215.53931" id="rect1716"></rect><rect x="-1791.6704" y="2956.9297" width="1407.7411" height="215.53931" id="rect1027-0-9-8-1-6-4"></rect><rect x="-1791.6704" y="2956.9297" width="1407.7411" height="215.53931" id="rect1719"></rect><rect x="-1791.6704" y="2956.9297" width="1407.7411" height="215.53931" id="rect1027-0-1-5-1-9-3-6"></rect><rect x="-1791.6704" y="2956.9297" width="1407.7411" height="215.53931" id="rect1722"></rect><rect x="-1791.6704" y="2956.9297" width="1407.7411" height="215.53931" id="rect1027-08-0-0-7-8"></rect><rect x="-1791.6704" y="2956.9297" width="1407.7411" height="215.53931" id="rect1803"></rect><rect x="-1791.6704" y="2956.9297" width="1407.7411" height="215.53931" id="rect1027-0-9-8-1-6-46"></rect><rect x="-1791.6704" y="2956.9297" width="1407.7411" height="215.53931" id="rect1806"></rect><rect x="-1791.6704" y="2956.9297" width="1407.7411" height="215.53931" id="rect1027-0-1-5-1-9-3-9"></rect><rect x="-1791.6704" y="2956.9297" width="1407.7411" height="215.53931" id="rect1809"></rect><rect x="-1791.6704" y="2956.9297" width="1407.7411" height="215.53931" id="rect1027-08-0-6"></rect><rect x="-1791.6704" y="2956.9297" width="1407.7411" height="215.53931" id="rect1944"></rect><rect x="-1791.6704" y="2956.9297" width="1407.7411" height="215.53931" id="rect1027-0-9-8-3"></rect><rect x="-1791.6704" y="2956.9297" width="1407.7411" height="215.53931" id="rect1947"></rect><rect x="-1791.6704" y="2956.9297" width="1407.7411" height="215.53931" id="rect1027-0-1-5-1-6"></rect><rect x="-1791.6704" y="2956.9297" width="1407.7411" height="215.53931" id="rect1950"></rect><rect x="-1791.6704" y="2956.9297" width="1407.7411" height="215.53931" id="rect1027-08-0-61"></rect><rect x="-1791.6704" y="2956.9297" width="1407.7411" height="215.53931" id="rect2054"></rect><rect x="-1791.6704" y="2956.9297" width="1407.7411" height="215.53931" id="rect1027-0-9-8-8"></rect><rect x="-1791.6704" y="2956.9297" width="1407.7411" height="215.53931" id="rect2057"></rect><rect x="-1791.6704" y="2956.9297" width="1407.7411" height="215.53931" id="rect1027-0-1-5-1-4"></rect><rect x="-1791.6704" y="2956.9297" width="1407.7411" height="215.53931" id="rect2060"></rect><rect x="-1791.6704" y="2956.9297" width="1407.7411" height="215.53931" id="rect1027-08-0-8"></rect><rect x="-1791.6704" y="2956.9297" width="1407.7411" height="215.53931" id="rect2182"></rect><rect x="-1791.6704" y="2956.9297" width="1407.7411" height="215.53931" id="rect1027-0-9-8-2"></rect><rect x="-1791.6704" y="2956.9297" width="1407.7411" height="215.53931" id="rect2185"></rect><rect x="-1791.6704" y="2956.9297" width="1407.7411" height="215.53931" id="rect1027-0-1-5-1-5"></rect><rect x="-1791.6704" y="2956.9297" width="1407.7411" height="215.53931" id="rect2188"></rect><rect x="-1791.6704" y="2956.9297" width="1407.7411" height="215.53931" id="rect1027-08-0-0-7-7-1"></rect><rect x="-1791.6704" y="2956.9297" width="1407.7411" height="215.53931" id="rect2307"></rect><rect x="-1791.6704" y="2956.9297" width="1407.7411" height="215.53931" id="rect1027-0-9-8-1-6-4-8"></rect><rect x="-1791.6704" y="2956.9297" width="1407.7411" height="215.53931" id="rect2310"></rect><rect x="-1791.6704" y="2956.9297" width="1407.7411" height="215.53931" id="rect1027-0-1-5-1-9-3-6-9"></rect><rect x="-1791.6704" y="2956.9297" width="1407.7411" height="215.53931" id="rect2313"></rect><rect x="-1791.6704" y="2956.9297" width="1407.7411" height="215.53931" id="rect1027-08-0-0-7-4"></rect><rect x="-1791.6704" y="2956.9297" width="1407.7411" height="215.53931" id="rect2427"></rect><rect x="-1791.6704" y="2956.9297" width="1407.7411" height="215.53931" id="rect1027-0-9-8-1-6-0"></rect><rect x="-1791.6704" y="2956.9297" width="1407.7411" height="215.53931" id="rect2430"></rect><rect x="-1791.6704" y="2956.9297" width="1407.7411" height="215.53931" id="rect1027-0-1-5-1-9-3-8"></rect><rect x="-1791.6704" y="2956.9297" width="1407.7411" height="215.53931" id="rect2433"></rect><rect x="-1791.6704" y="2956.9297" width="1407.7411" height="215.53931" id="rect1027-08-0-0-7-7-1-6"></rect><rect x="-1791.6704" y="2956.9297" width="1407.7411" height="215.53931" id="rect2517"></rect><rect x="-1791.6704" y="2956.9297" width="1407.7411" height="215.53931" id="rect1027-0-9-8-1-6-4-8-2"></rect><rect x="-1791.6704" y="2956.9297" width="1407.7411" height="215.53931" id="rect2520"></rect><rect x="-1791.6704" y="2956.9297" width="1407.7411" height="215.53931" id="rect1027-0-1-5-1-9-3-6-9-8"></rect><rect x="-1791.6704" y="2956.9297" width="1407.7411" height="215.53931" id="rect2523"></rect><rect x="-1791.6704" y="2956.9297" width="1407.7411" height="215.53931" id="rect1027-08-0-0-7-7-14"></rect><rect x="-1791.6704" y="2956.9297" width="1407.7411" height="215.53931" id="rect1027-0-9-8-1-6-4-80"></rect><rect x="-1791.6704" y="2956.9297" width="1407.7411" height="215.53931" id="rect1027-0-1-5-1-9-3-6-6"></rect></defs><text xml:space="preserve" id="text1019" style="font-weight:bold;font-size:14.6667px;line-height:0.7;font-family:'MS 33558';-inkscape-font-specification:'MS 33558 Bold';text-align:center;letter-spacing:0px;word-spacing:0px;white-space:pre;shape-inside:url(#rect1021)" transform="translate(9744.5725,-787.99372)"></text><ellipse style="fill:#ffffff;fill-opacity:1;stroke:#f59600;stroke-width:31.3999;stroke-linejoin:round;stroke-miterlimit:4;stroke-dasharray:none;stroke-opacity:1;paint-order:fill markers stroke" id="path987-4-9-4-4" cx="-499.99997" cy="-500.11761" rx="484.30002" ry="484.41766" transform="scale(-1)"></ellipse><path fill="currentColor" d="m 326.39838,487.82933 c 28.0885,0 50.9253,-22.808 50.9253,-50.862 0,-28.054 -22.8368,-50.862 -50.9253,-50.862 -28.0885,0 -50.9254,22.808 -50.9254,50.862 0,28.054 22.8369,50.862 50.9254,50.862 z m 356.4773,0 c 28.0885,0 50.9254,-22.808 50.9254,-50.862 0,-28.054 -22.8369,-50.862 -50.9254,-50.862 -28.0885,0 -50.9253,22.808 -50.9253,50.862 0,28.054 22.8368,50.862 50.9253,50.862 z m 25.4627,25.432 h -50.9253 c -14.0045,0 -26.6563,5.642 -35.8865,14.782 32.0671,17.563 54.8243,49.272 59.7577,86.942 h 52.5168 c 14.084,0 25.4626,-11.364 25.4626,-25.431 v -25.431 c 0,-28.054 -22.8368,-50.862 -50.9253,-50.862 z m -320.5909,14.782 c -9.2302,-9.14 -21.882,-14.782 -35.8865,-14.782 h -50.9253 c -28.0885,0 -50.9253,22.808 -50.9253,50.862 v 25.431 c 0,14.067 11.3786,25.431 25.4626,25.431 h 52.4372 c 5.013,-37.67 27.7702,-69.379 59.8373,-86.942 z" id="path857-8-0" sodipodi:nodetypes="ssssssssssssccsssscssssscc" style="fill:#f59600;fill-opacity:0.699779;stroke:#f59600;stroke-width:1;stroke-opacity:1"></path><path fill="currentColor" d="m 504.63698,500.54533 c 49.2544,0 89.1194,-39.816 89.1194,-89.009 0,-49.194 -39.865,-89.009 -89.1194,-89.009 -49.2543,0 -89.1193,39.815 -89.1193,89.009 0,49.193 39.865,89.009 89.1193,89.009 z m 61.1104,25.431 h -6.6043 c -16.5508,7.947 -34.9316,12.716 -54.5061,12.716 -19.5744,0 -37.8757,-4.769 -54.506,-12.716 h -6.6044 c -50.607,0 -91.6656,41.008 -91.6656,91.553 v 22.888 c 0,21.06 17.1078,38.146 38.194,38.146 h 229.1641 c 21.0862,0 38.194,-17.086 38.194,-38.146 v -22.888 c 0,-50.545 -41.0586,-91.553 -91.6657,-91.553 z" id="path857-9-3-8" sodipodi:nodetypes="sssssscscssssssss" style="fill:#f59600;fill-opacity:1;stroke:#f59600;stroke-width:1;stroke-opacity:1"></path></svg>