<svg xmlns:inkscape="http://www.inkscape.org/namespaces/inkscape" xmlns:sodipodi="http://sodipodi.sourceforge.net/DTD/sodipodi-0.dtd" xmlns="http://www.w3.org/2000/svg" xmlns:svg="http://www.w3.org/2000/svg" xmlns:rdf="http://www.w3.org/1999/02/22-rdf-syntax-ns#" xmlns:cc="http://creativecommons.org/ns#" xmlns:dc="http://purl.org/dc/elements/1.1/" aria-hidden="true" data-prefix="fas" data-icon="mail-bulk" class="svg-inline--fa fa-mail-bulk fa-w-18" viewBox="0 0 999.99994 1000.2352" id="svg4" sodipodi:docname="Mailberatung.svg" inkscape:version="1.1 (c68e22c387, 2021-05-23)" width="999.99994" height="1000.2352"><metadata></metadata><defs id="defs8"><rect x="-1791.6704" y="2956.9297" width="1407.7411" height="215.53931" id="rect1027"></rect><rect x="-1555.9243" y="3010.8147" width="821.74359" height="242.4817" id="rect1021"></rect><rect x="-1791.6704" y="2956.9297" width="1407.7411" height="215.53931" id="rect1027-0"></rect><rect x="-1791.6704" y="2956.9297" width="1407.7411" height="215.53931" id="rect1042"></rect><rect x="-1791.6704" y="2956.9297" width="1407.7411" height="215.53931" id="rect1027-0-1"></rect><rect x="-1791.6704" y="2956.9297" width="1407.7411" height="215.53931" id="rect1070"></rect><rect x="-1791.6704" y="2956.9297" width="1407.7411" height="215.53931" id="rect1027-4"></rect><rect x="-1791.6704" y="2956.9297" width="1407.7411" height="215.53931" id="rect1100"></rect><rect x="-1791.6704" y="2956.9297" width="1407.7411" height="215.53931" id="rect1027-0-3"></rect><rect x="-1791.6704" y="2956.9297" width="1407.7411" height="215.53931" id="rect1103"></rect><rect x="-1791.6704" y="2956.9297" width="1407.7411" height="215.53931" id="rect1027-0-1-7"></rect><rect x="-1791.6704" y="2956.9297" width="1407.7411" height="215.53931" id="rect1106"></rect><rect x="-1791.6704" y="2956.9297" width="1407.7411" height="215.53931" id="rect1027-08"></rect><rect x="-1791.6704" y="2956.9297" width="1407.7411" height="215.53931" id="rect1197"></rect><rect x="-1791.6704" y="2956.9297" width="1407.7411" height="215.53931" id="rect1027-0-9"></rect><rect x="-1791.6704" y="2956.9297" width="1407.7411" height="215.53931" id="rect1200"></rect><rect x="-1791.6704" y="2956.9297" width="1407.7411" height="215.53931" id="rect1027-0-1-5"></rect><rect x="-1791.6704" y="2956.9297" width="1407.7411" height="215.53931" id="rect1203"></rect><rect x="-1791.6704" y="2956.9297" width="1407.7411" height="215.53931" id="rect1027-08-0"></rect><rect x="-1791.6704" y="2956.9297" width="1407.7411" height="215.53931" id="rect1291"></rect><rect x="-1791.6704" y="2956.9297" width="1407.7411" height="215.53931" id="rect1027-0-9-8"></rect><rect x="-1791.6704" y="2956.9297" width="1407.7411" height="215.53931" id="rect1294"></rect><rect x="-1791.6704" y="2956.9297" width="1407.7411" height="215.53931" id="rect1027-0-1-5-1"></rect><rect x="-1791.6704" y="2956.9297" width="1407.7411" height="215.53931" id="rect1297"></rect><rect x="-1791.6704" y="2956.9297" width="1407.7411" height="215.53931" id="rect1027-08-0-0"></rect><rect x="-1791.6704" y="2956.9297" width="1407.7411" height="215.53931" id="rect1387"></rect><rect x="-1791.6704" y="2956.9297" width="1407.7411" height="215.53931" id="rect1027-0-9-8-1"></rect><rect x="-1791.6704" y="2956.9297" width="1407.7411" height="215.53931" id="rect1390"></rect><rect x="-1791.6704" y="2956.9297" width="1407.7411" height="215.53931" id="rect1027-0-1-5-1-9"></rect><rect x="-1791.6704" y="2956.9297" width="1407.7411" height="215.53931" id="rect1393"></rect><rect x="-1791.6704" y="2956.9297" width="1407.7411" height="215.53931" id="rect1027-08-0-0-9"></rect><rect x="-1791.6704" y="2956.9297" width="1407.7411" height="215.53931" id="rect1489"></rect><rect x="-1791.6704" y="2956.9297" width="1407.7411" height="215.53931" id="rect1027-0-9-8-1-0"></rect><rect x="-1791.6704" y="2956.9297" width="1407.7411" height="215.53931" id="rect1492"></rect><rect x="-1791.6704" y="2956.9297" width="1407.7411" height="215.53931" id="rect1027-0-1-5-1-9-7"></rect><rect x="-1791.6704" y="2956.9297" width="1407.7411" height="215.53931" id="rect1495"></rect><rect x="-1791.6704" y="2956.9297" width="1407.7411" height="215.53931" id="rect1027-08-0-0-7"></rect><rect x="-1791.6704" y="2956.9297" width="1407.7411" height="215.53931" id="rect1620"></rect><rect x="-1791.6704" y="2956.9297" width="1407.7411" height="215.53931" id="rect1027-0-9-8-1-6"></rect><rect x="-1791.6704" y="2956.9297" width="1407.7411" height="215.53931" id="rect1623"></rect><rect x="-1791.6704" y="2956.9297" width="1407.7411" height="215.53931" id="rect1027-0-1-5-1-9-3"></rect><rect x="-1791.6704" y="2956.9297" width="1407.7411" height="215.53931" id="rect1626"></rect><rect x="-1791.6704" y="2956.9297" width="1407.7411" height="215.53931" id="rect1027-08-0-0-7-7"></rect><rect x="-1791.6704" y="2956.9297" width="1407.7411" height="215.53931" id="rect1716"></rect><rect x="-1791.6704" y="2956.9297" width="1407.7411" height="215.53931" id="rect1027-0-9-8-1-6-4"></rect><rect x="-1791.6704" y="2956.9297" width="1407.7411" height="215.53931" id="rect1719"></rect><rect x="-1791.6704" y="2956.9297" width="1407.7411" height="215.53931" id="rect1027-0-1-5-1-9-3-6"></rect><rect x="-1791.6704" y="2956.9297" width="1407.7411" height="215.53931" id="rect1722"></rect><rect x="-1791.6704" y="2956.9297" width="1407.7411" height="215.53931" id="rect1027-08-0-0-7-8"></rect><rect x="-1791.6704" y="2956.9297" width="1407.7411" height="215.53931" id="rect1803"></rect><rect x="-1791.6704" y="2956.9297" width="1407.7411" height="215.53931" id="rect1027-0-9-8-1-6-46"></rect><rect x="-1791.6704" y="2956.9297" width="1407.7411" height="215.53931" id="rect1806"></rect><rect x="-1791.6704" y="2956.9297" width="1407.7411" height="215.53931" id="rect1027-0-1-5-1-9-3-9"></rect><rect x="-1791.6704" y="2956.9297" width="1407.7411" height="215.53931" id="rect1809"></rect><rect x="-1791.6704" y="2956.9297" width="1407.7411" height="215.53931" id="rect1027-08-0-6"></rect><rect x="-1791.6704" y="2956.9297" width="1407.7411" height="215.53931" id="rect1944"></rect><rect x="-1791.6704" y="2956.9297" width="1407.7411" height="215.53931" id="rect1027-0-9-8-3"></rect><rect x="-1791.6704" y="2956.9297" width="1407.7411" height="215.53931" id="rect1947"></rect><rect x="-1791.6704" y="2956.9297" width="1407.7411" height="215.53931" id="rect1027-0-1-5-1-6"></rect><rect x="-1791.6704" y="2956.9297" width="1407.7411" height="215.53931" id="rect1950"></rect><rect x="-1791.6704" y="2956.9297" width="1407.7411" height="215.53931" id="rect1027-08-0-61"></rect><rect x="-1791.6704" y="2956.9297" width="1407.7411" height="215.53931" id="rect2054"></rect><rect x="-1791.6704" y="2956.9297" width="1407.7411" height="215.53931" id="rect1027-0-9-8-8"></rect><rect x="-1791.6704" y="2956.9297" width="1407.7411" height="215.53931" id="rect2057"></rect><rect x="-1791.6704" y="2956.9297" width="1407.7411" height="215.53931" id="rect1027-0-1-5-1-4"></rect><rect x="-1791.6704" y="2956.9297" width="1407.7411" height="215.53931" id="rect2060"></rect><rect x="-1791.6704" y="2956.9297" width="1407.7411" height="215.53931" id="rect1027-08-0-8"></rect><rect x="-1791.6704" y="2956.9297" width="1407.7411" height="215.53931" id="rect2182"></rect><rect x="-1791.6704" y="2956.9297" width="1407.7411" height="215.53931" id="rect1027-0-9-8-2"></rect><rect x="-1791.6704" y="2956.9297" width="1407.7411" height="215.53931" id="rect2185"></rect><rect x="-1791.6704" y="2956.9297" width="1407.7411" height="215.53931" id="rect1027-0-1-5-1-5"></rect><rect x="-1791.6704" y="2956.9297" width="1407.7411" height="215.53931" id="rect2188"></rect><rect x="-1791.6704" y="2956.9297" width="1407.7411" height="215.53931" id="rect1027-08-0-0-7-7-1"></rect><rect x="-1791.6704" y="2956.9297" width="1407.7411" height="215.53931" id="rect2307"></rect><rect x="-1791.6704" y="2956.9297" width="1407.7411" height="215.53931" id="rect1027-0-9-8-1-6-4-8"></rect><rect x="-1791.6704" y="2956.9297" width="1407.7411" height="215.53931" id="rect2310"></rect><rect x="-1791.6704" y="2956.9297" width="1407.7411" height="215.53931" id="rect1027-0-1-5-1-9-3-6-9"></rect><rect x="-1791.6704" y="2956.9297" width="1407.7411" height="215.53931" id="rect2313"></rect><rect x="-1791.6704" y="2956.9297" width="1407.7411" height="215.53931" id="rect1027-08-0-0-7-4"></rect><rect x="-1791.6704" y="2956.9297" width="1407.7411" height="215.53931" id="rect2427"></rect><rect x="-1791.6704" y="2956.9297" width="1407.7411" height="215.53931" id="rect1027-0-9-8-1-6-0"></rect><rect x="-1791.6704" y="2956.9297" width="1407.7411" height="215.53931" id="rect2430"></rect><rect x="-1791.6704" y="2956.9297" width="1407.7411" height="215.53931" id="rect1027-0-1-5-1-9-3-8"></rect><rect x="-1791.6704" y="2956.9297" width="1407.7411" height="215.53931" id="rect2433"></rect><rect x="-1791.6704" y="2956.9297" width="1407.7411" height="215.53931" id="rect1027-08-0-0-7-7-1-6"></rect><rect x="-1791.6704" y="2956.9297" width="1407.7411" height="215.53931" id="rect2517"></rect><rect x="-1791.6704" y="2956.9297" width="1407.7411" height="215.53931" id="rect1027-0-9-8-1-6-4-8-2"></rect><rect x="-1791.6704" y="2956.9297" width="1407.7411" height="215.53931" id="rect2520"></rect><rect x="-1791.6704" y="2956.9297" width="1407.7411" height="215.53931" id="rect1027-0-1-5-1-9-3-6-9-8"></rect><rect x="-1791.6704" y="2956.9297" width="1407.7411" height="215.53931" id="rect2523"></rect><rect x="-1791.6704" y="2956.9297" width="1407.7411" height="215.53931" id="rect1027-08-0-0-7-7-14"></rect><rect x="-1791.6704" y="2956.9297" width="1407.7411" height="215.53931" id="rect1027-0-9-8-1-6-4-80"></rect><rect x="-1791.6704" y="2956.9297" width="1407.7411" height="215.53931" id="rect1027-0-1-5-1-9-3-6-6"></rect></defs><text xml:space="preserve" id="text1019" style="font-weight:bold;font-size:14.6667px;line-height:0.7;font-family:'MS 33558';-inkscape-font-specification:'MS 33558 Bold';text-align:center;letter-spacing:0px;word-spacing:0px;white-space:pre;shape-inside:url(#rect1021)" transform="translate(15860.499,-808.20075)"></text><ellipse style="fill:#ffffff;fill-opacity:1;stroke:#f07814;stroke-width:31.3999;stroke-linejoin:round;stroke-miterlimit:4;stroke-dasharray:none;stroke-opacity:1;paint-order:fill markers stroke" id="path987-4-6-9" cx="-499.99997" cy="-500.11761" rx="484.30002" ry="484.41766" transform="scale(-1)"></ellipse><path fill="currentColor" d="m 749.28196,687.0623 h -88.838 c -11.778,26.485 -2.559,75.515 -2.616,79.455 -0.06,3.94 -3.439,5.219 -6.212,5.914 -3.679,0.923 -10.97,-3.027 -10.97,-3.027 -26.988,-18.864 -43.914,-47.791 -55.216,-82.342 h -156.148 c -17.67,0 -32,-14.33 -32,-32 v -32 h 96 c 33.21,0 60.59,-25.42 63.71,-57.82 l 0.29,0.22 v -134.4 h 192 c 17.67,0 32,14.33 32,32 v 192 c 0,17.67 -14.33,32 -32,32 z" id="path2-6-6" sodipodi:nodetypes="sczaccsscscccssss" style="fill:#f07814;fill-opacity:0.7"></path><path fill="currentColor" d="m 363.04996,526.4163 c -25.6,0 -51.2,-22.4 -64,-32 -64,-44.8 -83.2,-60.8 -96,-70.4 v 134.4 c 0,17.67 14.33,32 32,32 h 256 c 17.67,0 32,-14.33 32,-32 v -134.4 c -12.8,9.6 -32,25.6 -96,70.4 -12.8,9.6 -38.4,32 -64,32 z m 128,-192 h -256 c -17.67,0 -32,14.33 -32,32 v 16 c 25.6,19.2 22.4,19.2 115.2,86.4 9.6,6.4 28.8,25.6 44.8,25.6 16,0 35.2,-19.2 44.8,-22.4 92.8,-67.2 89.6,-67.2 115.2,-86.4 v -19.2 c 0,-17.67 -14.33,-32 -32,-32 z" id="path2-3-2-2" sodipodi:nodetypes="sccssssccssssccsccss" style="fill:#f07814;fill-opacity:1"></path></svg>